<svg xmlns="http://www.w3.org/2000/svg" xmlns:xlink="http://www.w3.org/1999/xlink" version="1.1" class="marks" width="917" height="180" viewBox="0 0 917 180" role="img" aria-labelledby="chart-trips_per_day_by_day_type_chart-title chart-trips_per_day_by_day_type_chart-desc"><title id="chart-trips_per_day_by_day_type_chart-title">The 5.3% whole-month weekday rise did not hold among alike days</title><desc id="chart-trips_per_day_by_day_type_chart-desc">Four horizontal bars of average trips into the zone per day over the whole month, with the January 2025 weekday bar picked out. Weekdays: 276,803 in January 2024 and 291,496 in January 2025. Weekend days: 333,838 in January 2024 and 321,645 in January 2025. The weekday rise is 5.3%. The chart shows whole months only; the pairs of days that were alike, where the rise did not hold, are in the table below it.</desc><g fill="none" stroke-miterlimit="4" transform="translate(137,27)"><g class="mark-group role-frame root" role="graphics-object" aria-roledescription="group mark container"><g transform="translate(0,0)"><path class="background" aria-hidden="true" d="M0,0h480v148h-480Z"/><g><g class="mark-group role-axis" role="graphics-symbol" aria-roledescription="axis" aria-label="Y-axis for a discrete scale with 2 values: Weekdays, Weekend days"><g transform="translate(0.5,0.5)"><path class="background" aria-hidden="true" d="M0,0h0v0h0Z" pointer-events="none"/><g><g class="mark-text role-axis-label" pointer-events="none"><text text-anchor="end" transform="translate(-8,43.86363636363637)" font-family="-apple-system, BlinkMacSystemFont, Segoe UI, Roboto, Helvetica, Arial, sans-serif" font-size="13px" font-weight="bold" fill="#1c1c1c" opacity="1">Weekdays</text><text text-anchor="end" transform="translate(-8,111.13636363636363)" font-family="-apple-system, BlinkMacSystemFont, Segoe UI, Roboto, Helvetica, Arial, sans-serif" font-size="13px" font-weight="bold" fill="#1c1c1c" opacity="1">Weekend days</text></g></g><path class="foreground" aria-hidden="true" d="" pointer-events="none" display="none"/></g></g><g class="mark-group role-scope" role="graphics-object" aria-roledescription="group mark container"><g transform="translate(0,13.45454545454546)"><path class="background" aria-hidden="true" d="M0,0L330.16396,0C331.267790048988,0,332.16396,0.896169951012,332.16396,2L332.16396,24.909090909090907C332.16396,26.012920958078908,331.267790048988,26.909090909090907,330.16396,26.909090909090907L0,26.909090909090907C0,26.909090909090907,0,26.909090909090907,0,26.909090909090907L0,0C0,0,0,0,0,0Z"/><g clip-path="url(#clip1)"><g class="mark-group role-scope" role="graphics-object" aria-roledescription="group mark container"><g transform="translate(0,0)"><path class="background" aria-hidden="true" d="M0,0h0v26.909090909090907h0Z"/><g><g class="mark-rect role-mark layer_0_marks" role="graphics-object" aria-roledescription="rect mark container"><path aria-label="crz_trips_per_day: 276803.3; day_type_label: Weekdays; period_label: January 2024; period_day_type: baseline_weekday" role="graphics-symbol" aria-roledescription="bar" d="M0,0h332.16396v26.909090909090907h-332.16396Z" fill="#b8b8b8"/></g></g><path class="foreground" aria-hidden="true" d="" display="none"/></g></g></g><path class="foreground" aria-hidden="true" d="" display="none"/></g><g transform="translate(0,40.36363636363637)"><path class="background" aria-hidden="true" d="M0,0L347.79555999999997,0C348.899390048988,0,349.79555999999997,0.896169951012,349.79555999999997,2L349.79555999999997,24.909090909090907C349.79555999999997,26.012920958078908,348.899390048988,26.909090909090907,347.79555999999997,26.909090909090907L0,26.909090909090907C0,26.909090909090907,0,26.909090909090907,0,26.909090909090907L0,0C0,0,0,0,0,0Z"/><g clip-path="url(#clip2)"><g class="mark-group role-scope" role="graphics-object" aria-roledescription="group mark container"><g transform="translate(0,0)"><path class="background" aria-hidden="true" d="M0,0h0v26.909090909090907h0Z"/><g><g class="mark-rect role-mark layer_0_marks" role="graphics-object" aria-roledescription="rect mark container"><path aria-label="crz_trips_per_day: 291496.3; day_type_label: Weekdays; period_label: January 2025; period_day_type: after_weekday" role="graphics-symbol" aria-roledescription="bar" d="M0,0h349.79555999999997v26.909090909090907h-349.79555999999997Z" fill="#1f5fa8"/></g></g><path class="foreground" aria-hidden="true" d="" display="none"/></g></g></g><path class="foreground" aria-hidden="true" d="" display="none"/></g><g transform="translate(0,80.72727272727272)"><path class="background" aria-hidden="true" d="M0,0L398.60571999999996,0C399.709550048988,0,400.60571999999996,0.896169951012,400.60571999999996,2L400.60571999999996,24.909090909090907C400.60571999999996,26.012920958078908,399.709550048988,26.909090909090907,398.60571999999996,26.909090909090907L0,26.909090909090907C0,26.909090909090907,0,26.909090909090907,0,26.909090909090907L0,0C0,0,0,0,0,0Z"/><g clip-path="url(#clip3)"><g class="mark-group role-scope" role="graphics-object" aria-roledescription="group mark container"><g transform="translate(0,0)"><path class="background" aria-hidden="true" d="M0,0h0v26.909090909090907h0Z"/><g><g class="mark-rect role-mark layer_0_marks" role="graphics-object" aria-roledescription="rect mark container"><path aria-label="crz_trips_per_day: 333838.1; day_type_label: Weekend days; period_label: January 2024; period_day_type: baseline_weekend" role="graphics-symbol" aria-roledescription="bar" d="M0,0h400.60571999999996v26.909090909090907h-400.60571999999996Z" fill="#d4d4d4"/></g></g><path class="foreground" aria-hidden="true" d="" display="none"/></g></g></g><path class="foreground" aria-hidden="true" d="" display="none"/></g><g transform="translate(0,107.63636363636363)"><path class="background" aria-hidden="true" d="M0,0L383.97411999999997,0C385.077950048988,0,385.97411999999997,0.896169951012,385.97411999999997,2L385.97411999999997,24.909090909090907C385.97411999999997,26.012920958078908,385.077950048988,26.909090909090907,383.97411999999997,26.909090909090907L0,26.909090909090907C0,26.909090909090907,0,26.909090909090907,0,26.909090909090907L0,0C0,0,0,0,0,0Z"/><g clip-path="url(#clip4)"><g class="mark-group role-scope" role="graphics-object" aria-roledescription="group mark container"><g transform="translate(0,0)"><path class="background" aria-hidden="true" d="M0,0h0v26.909090909090907h0Z"/><g><g class="mark-rect role-mark layer_0_marks" role="graphics-object" aria-roledescription="rect mark container"><path aria-label="crz_trips_per_day: 321645.1; day_type_label: Weekend days; period_label: January 2025; period_day_type: after_weekend" role="graphics-symbol" aria-roledescription="bar" d="M0,0h385.97411999999997v26.909090909090907h-385.97411999999997Z" fill="#a3a3a3"/></g></g><path class="foreground" aria-hidden="true" d="" display="none"/></g></g></g><path class="foreground" aria-hidden="true" d="" display="none"/></g></g><g class="mark-text role-mark layer_1_marks" role="graphics-object" aria-roledescription="text mark container"><text aria-label="crz_trips_per_day: 276803.3; day_type_label: Weekdays; period_label: January 2024; period_day_type: baseline_weekday" role="graphics-symbol" aria-roledescription="text mark" text-anchor="end" transform="translate(326.16396,30.909090909090914)" font-family="-apple-system, BlinkMacSystemFont, Segoe UI, Roboto, Helvetica, Arial, sans-serif" font-size="12px" fill="#222222">January 2024</text><text aria-label="crz_trips_per_day: 291496.3; day_type_label: Weekdays; period_label: January 2025; period_day_type: after_weekday" role="graphics-symbol" aria-roledescription="text mark" text-anchor="end" transform="translate(343.79555999999997,57.81818181818182)" font-family="-apple-system, BlinkMacSystemFont, Segoe UI, Roboto, Helvetica, Arial, sans-serif" font-size="12px" fill="#ffffff">January 2025</text><text aria-label="crz_trips_per_day: 333838.1; day_type_label: Weekend days; period_label: January 2024; period_day_type: baseline_weekend" role="graphics-symbol" aria-roledescription="text mark" text-anchor="end" transform="translate(394.60571999999996,98.18181818181817)" font-family="-apple-system, BlinkMacSystemFont, Segoe UI, Roboto, Helvetica, Arial, sans-serif" font-size="12px" fill="#222222">January 2024</text><text aria-label="crz_trips_per_day: 321645.1; day_type_label: Weekend days; period_label: January 2025; period_day_type: after_weekend" role="graphics-symbol" aria-roledescription="text mark" text-anchor="end" transform="translate(379.97411999999997,125.09090909090908)" font-family="-apple-system, BlinkMacSystemFont, Segoe UI, Roboto, Helvetica, Arial, sans-serif" font-size="12px" fill="#222222">January 2025</text></g><g class="mark-text role-mark layer_2_marks" role="graphics-object" aria-roledescription="text mark container"><text aria-label="crz_trips_per_day: 276803.3; day_type_label: Weekdays; period_label: January 2024" role="graphics-symbol" aria-roledescription="text mark" text-anchor="start" transform="translate(338.16396,30.909090909090914)" font-family="-apple-system, BlinkMacSystemFont, Segoe UI, Roboto, Helvetica, Arial, sans-serif" font-size="12px" font-weight="bold" fill="#222222">276,803</text><text aria-label="crz_trips_per_day: 291496.3; day_type_label: Weekdays; period_label: January 2025" role="graphics-symbol" aria-roledescription="text mark" text-anchor="start" transform="translate(355.79555999999997,57.81818181818182)" font-family="-apple-system, BlinkMacSystemFont, Segoe UI, Roboto, Helvetica, Arial, sans-serif" font-size="12px" font-weight="bold" fill="#222222">291,496</text><text aria-label="crz_trips_per_day: 333838.1; day_type_label: Weekend days; period_label: January 2024" role="graphics-symbol" aria-roledescription="text mark" text-anchor="start" transform="translate(406.60571999999996,98.18181818181817)" font-family="-apple-system, BlinkMacSystemFont, Segoe UI, Roboto, Helvetica, Arial, sans-serif" font-size="12px" font-weight="bold" fill="#222222">333,838</text><text aria-label="crz_trips_per_day: 321645.1; day_type_label: Weekend days; period_label: January 2025" role="graphics-symbol" aria-roledescription="text mark" text-anchor="start" transform="translate(391.97411999999997,125.09090909090908)" font-family="-apple-system, BlinkMacSystemFont, Segoe UI, Roboto, Helvetica, Arial, sans-serif" font-size="12px" font-weight="bold" fill="#222222">321,645</text></g><g class="mark-group role-title"><g transform="translate(-132,-22)"><path class="background" aria-hidden="true" d="M0,0h0v0h0Z" pointer-events="none"/><g><g class="mark-text role-title-text" role="graphics-symbol" aria-roledescription="title" aria-label="Title text 'The 5.3% whole-month weekday rise did not hold among alike days'" pointer-events="none"><text text-anchor="start" transform="translate(0,14)" font-family="-apple-system, BlinkMacSystemFont, Segoe UI, Roboto, Helvetica, Arial, sans-serif" font-size="18px" font-weight="600" fill="#1c1c1c" opacity="1">The 5.3% whole-month weekday rise did not hold among alike days</text></g></g><path class="foreground" aria-hidden="true" d="" pointer-events="none" display="none"/></g></g></g><path class="foreground" aria-hidden="true" d="" display="none"/></g></g></g><defs><clipPath id="clip1"><path d="M0,0L330.16396,0C331.267790048988,0,332.16396,0.896169951012,332.16396,2L332.16396,24.909090909090907C332.16396,26.012920958078908,331.267790048988,26.909090909090907,330.16396,26.909090909090907L0,26.909090909090907C0,26.909090909090907,0,26.909090909090907,0,26.909090909090907L0,0C0,0,0,0,0,0Z"/></clipPath><clipPath id="clip2"><path d="M0,0L347.79555999999997,0C348.899390048988,0,349.79555999999997,0.896169951012,349.79555999999997,2L349.79555999999997,24.909090909090907C349.79555999999997,26.012920958078908,348.899390048988,26.909090909090907,347.79555999999997,26.909090909090907L0,26.909090909090907C0,26.909090909090907,0,26.909090909090907,0,26.909090909090907L0,0C0,0,0,0,0,0Z"/></clipPath><clipPath id="clip3"><path d="M0,0L398.60571999999996,0C399.709550048988,0,400.60571999999996,0.896169951012,400.60571999999996,2L400.60571999999996,24.909090909090907C400.60571999999996,26.012920958078908,399.709550048988,26.909090909090907,398.60571999999996,26.909090909090907L0,26.909090909090907C0,26.909090909090907,0,26.909090909090907,0,26.909090909090907L0,0C0,0,0,0,0,0Z"/></clipPath><clipPath id="clip4"><path d="M0,0L383.97411999999997,0C385.077950048988,0,385.97411999999997,0.896169951012,385.97411999999997,2L385.97411999999997,24.909090909090907C385.97411999999997,26.012920958078908,385.077950048988,26.909090909090907,383.97411999999997,26.909090909090907L0,26.909090909090907C0,26.909090909090907,0,26.909090909090907,0,26.909090909090907L0,0C0,0,0,0,0,0Z"/></clipPath></defs></svg>